<?xml version="1.0" encoding="UTF-8"?>
<svg width="105mm" height="30mm" fill-rule="evenodd" stroke-linejoin="round" stroke-width="28.222" preserveAspectRatio="xMidYMid" version="1.2" viewBox="0 0 10500 3000" xml:space="preserve" xmlns="http://www.w3.org/2000/svg" xmlns:cc="http://creativecommons.org/ns#" xmlns:dc="http://purl.org/dc/elements/1.1/" xmlns:ooo="http://xml.openoffice.org/svg/export" xmlns:rdf="http://www.w3.org/1999/02/22-rdf-syntax-ns#"><metadata><rdf:RDF><cc:Work rdf:about=""><dc:format>image/svg+xml</dc:format><dc:type rdf:resource="http://purl.org/dc/dcmitype/StillImage"/><dc:title/></cc:Work></rdf:RDF></metadata>
 <defs class="ClipPathGroup">
  <clipPath id="a">
   <rect width="12700" height="12700"/>
  </clipPath>
 </defs>
 <defs class="TextShapeIndex">
 </defs>
 <defs class="EmbeddedBulletChars">
 </defs>
 <g transform="translate(47.565 -9700)">
  <g class="Master_Slide">
  </g>
 </g>
 <g class="SlideGroup" transform="translate(-1109.4 -4372.5)">
    <g class="Slide" clip-path="url(#a)">
     <g class="Page">
      <g class="com.sun.star.drawing.ClosedBezierShape">
        <rect class="BoundingBox" x="8140" y="4512" width="688" height="1326" fill="none"/>
        <path d="m8342 5003c-16 52-35 86-56 103-20 17-51 28-93 32l-32 101c38 2 60 18 66 47 6 30 3 64-9 102l-72 223c-26 150 39 226 196 226 50 0 101-12 152-34 51-23 96-51 132-83 36-33 58-62 66-87 4-14 3-26-3-37-7-11-16-17-30-17-9 0-17 2-23 7-6 4-16 11-30 23-14 11-25 18-34 21-12-2-16-9-12-19l65-197c42-132-34-212-230-238l1-4c102-14 191-53 265-114 75-62 125-132 150-210 19-59 21-114 5-165-15-53-50-94-105-124-55-31-128-47-221-47-30 0-62 2-96 5l-33 102c30 11 50 27 62 47 11 19 10 51-3 96z" fill="#c4122e"/>
      </g>
      <g class="com.sun.star.drawing.ClosedBezierShape">
        <rect class="BoundingBox" x="7643" y="4517" width="677" height="816" fill="none"/>
        <path d="m7814 4619c13 5 23 11 28 19 5 7 5 20-1 38l-198 612c69-17 133-27 187-30h1c60-2 106 3 142 16 37 13 65 33 83 58l263-815h-459c-20 0-37 6-51 17-13 11-22 24-27 37-4 15-3 26 3 32 5 6 15 11 29 16z" fill="#c4122e"/>
      </g>
      <g class="com.sun.star.drawing.ClosedBezierShape">
        <rect class="BoundingBox" x="7203" y="4517" width="422" height="400" fill="none"/>
        <path d="m7377 4722c16 25 26 50 31 77 4 26 5 50 1 73-4 24 6 39 33 43 34-4 56-18 64-43l118-355h-388l-33 103c43 6 78 19 107 37 30 18 52 40 67 65z" fill="#c4122e"/>
      </g>
      <g class="com.sun.star.drawing.ClosedBezierShape">
        <rect class="BoundingBox" x="6406" y="4517" width="754" height="1029" fill="none"/>
        <path d="m6655 4621c15 5 25 12 30 21 5 10 4 28-5 54l-274 849c10-10 22-19 34-29 44-33 98-62 158-86 59-23 124-42 196-57 30-6 61-10 92-14l273-842h-459c-17 0-33 5-47 14-15 9-24 20-29 33-6 21-6 34 0 40 6 7 16 12 31 17z" fill="#c4122e"/>
      </g>
      <g class="com.sun.star.drawing.ClosedBezierShape">
        <rect class="BoundingBox" x="6235" y="5702" width="91" height="108" fill="none"/>
        <path d="m6304 5705c-19 6-34 13-44 21-10 7-17 19-23 36-5 28 10 44 45 47h43c-13-26-23-61-14-106-3 0-5 1-7 2z" fill="#c4122e"/>
      </g>
      <g class="com.sun.star.drawing.ClosedBezierShape">
        <rect class="BoundingBox" x="6587" y="5594" width="225" height="119" fill="none"/>
        <path d="m6621 5666c-21 12-30 21-34 25 8 7 19 13 35 20 18-10 37-21 55-31 28-15 56-30 85-46 14-7 28-14 43-22l6-18c-32 8-61 17-90 27-38 14-72 29-100 45z" fill="#c4122e"/>
      </g>
      <g class="com.sun.star.drawing.ClosedBezierShape">
        <rect class="BoundingBox" x="9498" y="4517" width="749" height="1294" fill="none"/>
        <path d="m9742 4619c15 5 25 12 31 19s6 20 0 38l-275 851c6-3 12-5 18-8 50-19 94-28 135-28 44 0 77 9 101 29 26 21 41 49 43 82 2 27-4 54-17 81-12 22-26 42-44 61-18 20-40 41-65 65h159c37 0 63-3 78-11 15-7 25-17 31-30 8-23 5-40-8-48-13-9-27-18-40-27-13-8-16-24-9-47l366-1129h-453c-40 0-68 16-82 47-6 17-6 29 1 36 5 7 16 14 30 19z" fill="#c4122e"/>
      </g>
      <g class="com.sun.star.drawing.ClosedBezierShape">
        <rect class="BoundingBox" x="5738" y="4517" width="673" height="798" fill="none"/>
        <path d="m5919 5073c-27 83-77 131-149 142l-32 99c340 0 554-126 643-379 44-136 38-240-19-311-55-71-174-107-356-107h-11l-32 99c31 2 52 16 63 39 10 24 9 56-2 95z" fill="#c4122e"/>
      </g>
      <g class="com.sun.star.drawing.ClosedBezierShape">
        <rect class="BoundingBox" x="7015" y="4885" width="312" height="477" fill="none"/>
        <path d="m7186 5361 132-405c15-47 8-71-22-71-11 0-21 2-32 7-11 4-27 24-49 59-23 35-46 66-70 91s-56 42-95 53l-35 107c33 10 54 28 62 51 7 23 11 56 11 99 35 2 67 5 98 9z" fill="#c4122e"/>
      </g>
      <g class="com.sun.star.drawing.ClosedBezierShape">
        <rect class="BoundingBox" x="10293" y="4517" width="419" height="396" fill="none"/>
        <path d="m10494 4865c0 29 13 44 38 47 16-1 29-5 41-13 12-7 20-16 23-27l115-355h-388l-29 103c138 19 205 100 200 245z" fill="#c4122e"/>
      </g>
      <g class="com.sun.star.drawing.ClosedBezierShape">
        <rect class="BoundingBox" x="7532" y="5601" width="69" height="29" fill="none"/>
        <path d="m7550 5623c17-7 34-14 50-22-21 9-43 17-67 25l-1 3c7-2 13-4 18-6z" fill="#c4122e"/>
      </g>
      <g class="com.sun.star.drawing.ClosedBezierShape">
        <rect class="BoundingBox" x="7609" y="5601" width="408" height="209" fill="none"/>
        <path d="m7968 5602c-11 11-23 22-36 32-33 28-71 52-111 74-67 37-138 71-212 101h329c40-7 65-25 74-54 5-14 4-25-1-31-6-6-15-12-29-18s-24-13-29-21-5-21 1-38z" fill="#c4122e"/>
      </g>
      <g class="com.sun.star.drawing.ClosedBezierShape">
        <rect class="BoundingBox" x="1519" y="4489" width="841" height="1349" fill="none"/>
        <path d="m2358 5247c-3-46-16-91-39-133s-58-81-105-116c-46-34-106-63-178-86-45-15-78-39-98-72-21-34-25-69-15-106 26-70 82-117 170-143l34-101c-100 6-189 30-270 70-80 41-147 92-200 155-54 61-93 128-117 200-19 64-25 125-18 184s28 110 64 154 85 75 147 93c59 18 108 39 146 64s64 52 77 81c14 29 15 59 6 88-10 32-34 61-72 89-37 28-85 50-143 67l-33 102c68 0 135-12 201-36 66-25 128-58 186-100 57-42 107-90 147-144 41-54 71-109 89-165 17-50 23-98 21-145z" fill="#c4122e"/>
      </g>
      <g class="com.sun.star.drawing.ClosedBezierShape">
        <rect class="BoundingBox" x="4254" y="4517" width="1009" height="1294" fill="none"/>
        <path d="m4858 5711c-15-7-28-13-39-20s-13-24-5-52l314-970c8-18 21-32 40-39 18-8 36-16 54-23 18-8 30-21 37-40 5-14 3-27-7-36-9-9-24-14-44-14h-452l-364 1122c-7 21-15 35-26 43-10 9-24 15-41 20s-31 11-42 17c-10 6-19 18-27 35-4 13-1 25 8 36 9 10 23 17 41 19h486c22-1 41-9 56-20s24-23 28-35c4-22-2-36-17-43z" fill="#c4122e"/>
      </g>
      <g class="com.sun.star.drawing.ClosedBezierShape">
        <rect class="BoundingBox" x="2171" y="4490" width="399" height="461" fill="none"/>
        <path d="m2287 4662c27 35 44 74 50 116 7 44 7 83-1 118-3 14-1 27 8 36 8 10 20 16 35 18 39-5 66-32 83-81l101-315c7-18 7-32 0-42s-17-15-31-15c-10 0-19 2-26 6-8 5-17 12-28 22-12 10-21 17-28 22-8 5-16 8-26 10-11-1-29-8-53-21s-48-23-72-32c-24-8-56-13-94-14l-34 101c51 13 89 37 116 71z" fill="#c4122e"/>
      </g>
      <g class="com.sun.star.drawing.ClosedBezierShape">
        <rect class="BoundingBox" x="3495" y="4951" width="417" height="859" fill="none"/>
        <path d="m3911 5238-6-286h-3l-190 587c-29 61-55 102-78 124-24 21-49 37-75 47-26 11-43 22-52 35-2 5-5 10-9 17-4 15 0 27 10 35 12 8 26 12 43 12h250c22-2 40-7 53-17 14-9 23-20 27-33 6-18-2-33-22-46-21-13-36-30-47-51s-10-62 2-123z" fill="#c4122e"/>
      </g>
      <g class="com.sun.star.drawing.ClosedBezierShape">
        <rect class="BoundingBox" x="4991" y="4517" width="929" height="1294" fill="none"/>
        <path d="m5583 5706c-14-6-24-13-29-21s-5-22 1-43l364-1125h-452c-45 0-73 18-85 54-4 14-3 24 2 30s15 12 29 18c15 6 25 13 30 21s5 21-1 39l-310 956c-7 22-16 37-27 46-11 10-28 17-46 24-19 6-33 12-43 17-9 6-16 17-21 32-12 36 5 55 50 55h492c18-2 33-8 47-16s22-16 25-25c6-20 7-33 2-41-5-7-14-14-28-21z" fill="#c4122e"/>
      </g>
      <g class="com.sun.star.drawing.ClosedBezierShape">
        <rect class="BoundingBox" x="10418" y="4517" width="1009" height="1294" fill="none"/>
        <path d="m11375 4517h-488c-18 0-35 5-51 16-15 10-26 24-32 41-2 16-1 27 5 31 5 5 15 11 30 17 14 5 24 13 29 23s3 26-4 50l-310 954c-6 18-15 30-26 37-10 7-24 13-42 18-18 6-32 12-42 18-10 7-18 19-24 36-4 13-2 25 7 34s20 15 34 17h500c17 0 34-6 49-17 14-11 24-23 29-38 4-20 0-33-14-41-14-7-27-14-39-21-13-7-16-21-10-43l315-973c5-17 13-30 23-37 11-7 25-14 42-19 18-6 32-11 41-17 10-6 18-17 25-32 11-36-4-54-47-54z" fill="#c4122e"/>
      </g>
      <g class="com.sun.star.drawing.ClosedBezierShape">
        <rect class="BoundingBox" x="10102" y="4885" width="313" height="530" fill="none"/>
        <path d="m10378 4885c-23 0-45 18-67 54-28 44-52 77-71 98-20 20-54 39-103 58l-35 107c26 7 45 20 55 39 11 20 17 39 18 60 1 20 1 44-1 73-2 11 1 20 8 27 7 8 15 12 26 13 32-2 55-21 66-57l136-418c5-16 5-28-1-39-6-10-16-15-31-15z" fill="#c4122e"/>
      </g>
      <g class="com.sun.star.drawing.ClosedBezierShape">
        <rect class="BoundingBox" x="3877" y="4514" width="723" height="1296" fill="none"/>
        <path d="m4599 4762h-3l-175 290-11-538h-446c-44 0-73 18-87 51 2 9 2 16 0 21 6 17 18 27 38 29s34 7 43 14c10 8 16 31 18 70l15 1110h47l459-732z" fill="#c4122e"/>
      </g>
      <g class="com.sun.star.drawing.ClosedBezierShape">
        <rect class="BoundingBox" x="3318" y="4517" width="421" height="400" fill="none"/>
        <path d="m3523 4872c-5 24 6 39 32 43 36-4 57-18 65-43l118-355h-387l-33 103c42 6 78 19 106 37 29 18 51 40 67 65 15 25 25 50 30 77 5 26 5 50 2 73z" fill="#c4122e"/>
      </g>
      <g class="com.sun.star.drawing.ClosedBezierShape">
        <rect class="BoundingBox" x="2349" y="4517" width="926" height="1294" fill="none"/>
        <path d="m2814 4517c-17 0-32 5-47 14s-24 20-28 33c-6 21-6 34-1 40 6 7 16 12 31 16 16 5 26 12 31 21 5 10 3 28-6 54l-308 954c-7 18-15 30-25 36-10 7-25 14-43 20-19 6-33 13-43 20s-18 19-24 36c-4 28 11 45 45 48h459l419-1292z" fill="#c4122e"/>
      </g>
      <g class="com.sun.star.drawing.ClosedBezierShape">
        <rect class="BoundingBox" x="1264" y="5337" width="408" height="501" fill="none"/>
        <path d="m1563 5667c-25-30-41-64-49-101s-11-71-11-103c1-32 2-60 3-83 2-13-1-24-9-32-8-7-19-11-34-11-16 0-31 6-47 18-15 12-26 30-34 53l-116 361c-4 14-3 26 3 39 6 12 16 18 29 18 9 0 18-2 27-7s20-12 32-22c13-10 22-17 29-21s15-7 25-7c14 0 36 8 64 22 29 15 55 26 77 34s50 12 85 12l33-102c-47-15-83-37-107-68z" fill="#c4122e"/>
      </g>
      <g class="com.sun.star.drawing.ClosedBezierShape">
        <rect class="BoundingBox" x="3129" y="4885" width="312" height="528" fill="none"/>
        <path d="m3235 5412c16-2 30-7 42-16 11-9 20-20 24-32l131-408c15-47 8-71-22-71-10 0-21 2-31 7-10 4-26 24-49 59-22 35-45 66-69 91-26 25-57 42-97 53l-34 107c33 10 53 28 61 51 8 24 12 60 12 107-2 31 9 48 32 52z" fill="#c4122e"/>
      </g>
      <g class="com.sun.star.drawing.ClosedBezierShape">
        <rect class="BoundingBox" x="2933" y="5404" width="518" height="406" fill="none"/>
        <path d="m3418 5404c-13 0-26 5-40 15-15 10-27 25-40 43-17 30-44 64-81 100-37 37-81 69-132 96-50 28-103 44-159 49l-33 102h397l114-350c12-37 3-55-26-55z" fill="#c4122e"/>
      </g>
      <g class="com.sun.star.drawing.ClosedBezierShape">
        <rect class="BoundingBox" x="5702" y="5323" width="4308" height="1932" fill="none"/>
        <path d="m7003 6875c-25 25-49 50-73 75s-48 50-74 76c-25 26-50 49-75 70s-49 36-73 49c-25 13-48 21-69 21-19 0-34-4-45-10-11-7-19-16-23-25-4-10-5-21-4-33 2-13 6-26 12-39 14-25 37-51 70-79 33-29 72-55 117-79 44-25 94-47 147-65s108-30 163-35c-24 24-48 49-73 74zm-474-1212c9-17 30-35 61-53s68-34 110-49c43-15 87-27 134-37 46-10 89-15 129-16 35-1 68 0 101 2s63 6 90 12c-62 27-124 54-185 83-62 28-120 57-175 86-30 16-58 32-85 47-27 14-54 29-80 44-40-13-70-30-92-49-21-19-24-42-8-70zm740 0c-3 5-7 11-10 17-4 5-8 11-14 16-6 10-7 18-4 25 4 7 10 11 19 12 9 2 19 1 31-3 11-4 22-12 33-23 29-34 49-64 59-91 105-43 197-76 276-102 80-25 139-39 179-41 23-1 37 2 41 7 4 6 2 14-7 25-8 11-22 23-42 38s-43 31-69 48c-55 34-118 64-187 91-70 27-141 51-214 70s-146 35-217 46c-72 12-137 20-194 23h-5c-1 1-2 0-4 0 56-29 112-56 167-83 54-26 108-52 162-75zm673 1138c-11 2-26 9-44 19-41 22-81 32-120 30-38-2-78-10-118-24s-82-32-125-53c-44-22-91-41-141-58l413-395c16-14 35-33 56-53s41-41 61-60c20-20 38-39 53-56 16-17 27-29 32-40 3-7 4-18 3-30s-4-23-9-35c-4-12-10-22-16-32s-13-18-20-21c-10-7-19-11-28-14s-17-1-24 7c-49 59-104 114-163 165-60 51-118 105-176 160l-31 32c-35 26-72 52-111 77s-77 47-113 65c-36 19-69 33-98 44-30 12-52 17-66 17-8 0-10-3-7-10 4-8 11-19 22-32 11-14 25-28 41-45 16-16 33-33 50-48 6-7 19-17 40-35 21-17 45-37 72-60 28-23 56-45 87-70 30-24 58-47 84-67 25-21 46-39 63-54s26-23 27-25c4-7 4-18-1-30s-12-23-21-35c-10-12-20-22-31-30-11-9-20-14-27-17-13-4-25-7-36-9-11-1-18 2-22 11-2 4-6 9-12 15-6 7-12 14-20 21l-20 20c-6 7-11 11-14 14-18 16-38 32-60 51s-44 39-68 59c-23 20-47 40-70 60-12 10-23 19-33 28-75 49-151 94-228 137-115 66-227 124-335 172s-211 84-305 111c-95 27-177 41-246 41-6 0-19-2-40-4-20-2-39-6-57-14s-31-21-40-39-4-45 13-77c32-58 75-117 130-176s118-117 189-174 148-112 233-166c83-54 169-107 257-157 21 1 41 2 62 2 20 0 41 0 62-2 67-3 138-11 214-24 77-14 154-31 231-53 77-23 154-50 231-81s150-64 219-102c36-20 70-44 100-68 31-25 56-49 76-74 21-25 35-48 43-72 7-23 7-45-2-63-9-17-27-30-56-39-28-10-68-14-119-12-66 4-145 18-237 42-91 25-189 56-291 95-34-16-75-28-124-35-49-8-104-12-165-11-72 1-142 7-209 21-67 13-129 31-184 53-56 22-103 49-144 79s-70 61-88 95c-25 48-27 89-6 121 21 33 56 59 106 79-218 133-389 259-512 378-123 120-207 228-251 326-16 35-24 65-26 90-1 25 1 47 8 65 7 19 17 37 29 53 13 15 25 30 36 45 17 21 44 35 83 43 38 7 80 8 127 5 47-2 96-9 146-20 50-10 96-21 137-35 110-39 213-81 305-123 92-43 180-89 265-137 56-33 112-66 168-101-21 28-38 53-50 77-17 35-21 63-11 86 10 22 40 35 90 35 32 0 76-13 134-35 58-23 120-51 186-88-27 25-54 51-81 77-26 26-53 52-80 78h-4c-64-1-133 9-204 29-72 21-140 49-206 85-65 35-123 77-175 124s-90 96-115 148c-12 22-19 45-21 67s1 42 10 59c8 17 22 30 41 41s45 18 76 19c75 3 151-14 228-49s160-94 249-179l201-193c28 17 53 37 76 59 22 23 47 44 73 65 27 20 59 37 96 51s85 19 143 18c36-1 71-9 106-25 35-15 67-34 94-56 28-21 50-43 68-65 17-23 26-40 27-53 1-19-4-28-15-26zm1181-775c43-36 87-71 132-108 45-36 89-71 133-106 43-34 83-65 118-91 36-27 66-46 90-62 25-16 40-24 46-24 15 0 15 9 0 28-14 20-38 45-72 75-34 31-75 64-123 102-49 37-99 75-152 111s-104 69-155 100-96 57-136 74c36-29 75-63 119-99zm264 252c34-29 70-55 108-78s75-43 113-58 72-21 103-21c13 0 21 2 24 7 3 6 3 12-2 18-10 19-33 40-67 63s-74 44-118 65c-43 22-88 42-134 58s-85 27-116 33c25-29 54-58 89-87zm618-78c-5-6-11-10-21-10-9 0-20 3-31 12-41 27-90 60-147 98s-116 74-178 109c-61 34-121 64-180 88-58 24-110 37-154 37-39 0-63-8-71-25-8-18-4-41 10-68 31-3 66-8 105-19 40-10 81-24 124-41s86-37 130-59c44-21 85-45 122-69 37-25 69-51 97-79 28-27 48-54 60-81 8-14 11-30 11-44-1-13-6-25-15-35-8-11-23-20-42-26s-44-8-74-7c-45 1-96 12-152 31-56 20-112 45-170 76-57 32-113 67-168 107-55 39-103 80-146 121-49 35-98 67-149 100-57 36-112 68-164 93-52 26-96 37-130 37-9 0-13-7-12-24 2-16 10-39 25-67 14-28 36-59 65-95 30-37 67-75 113-114 40-12 84-32 134-56 49-24 100-52 153-83 53-32 107-66 160-102s104-72 151-109c48-36 91-72 131-105 39-34 71-63 96-89 14-15 25-32 33-48 8-17 12-32 11-46-1-15-8-28-20-38s-32-14-60-14c-33 0-70 7-111 24-42 16-87 38-135 65s-98 58-150 93c-52 36-103 72-154 111-52 39-102 79-150 118-49 40-93 76-134 110-53 45-103 92-149 137-35 34-66 67-93 99-52 34-103 66-155 95-55 32-109 59-161 82-53 23-99 36-140 41-46 1-72-11-77-32-6-22 1-49 22-81s51-65 90-100c40-35 81-66 123-93 69-42 123-70 161-84s65-21 79-21 22 2 25 10c4 7 1 18-8 30s-24 25-44 40c-20 16-47 33-79 50-13 6-21 13-25 21-4 7-6 13-3 19 2 5 7 9 14 10 8 2 18-1 31-7 46-20 84-39 114-58 29-20 53-38 72-56 18-17 32-34 41-47 8-13 15-24 19-32 7-12 12-24 13-38 2-14-1-26-8-37s-21-20-39-28c-19-8-45-13-77-13-41 0-94 11-160 32s-143 57-232 109c-58 34-110 71-157 110s-87 78-120 116-58 75-76 111-26 68-23 95c2 27 14 49 37 65s58 25 105 25c70 0 142-13 215-39 73-27 145-60 216-99 39-22 77-45 115-68-5 8-9 16-13 23-20 37-29 69-29 96 0 28 10 50 31 65 21 16 55 25 103 25 31 0 66-8 106-23 40-14 83-33 126-56 44-23 89-48 136-77 17-10 33-21 50-32-18 30-27 57-29 81-2 31 11 55 39 74 27 19 74 29 140 29 73 0 146-13 219-38 74-26 146-58 217-98s141-83 209-129c69-47 134-92 197-135 11-9 18-17 21-25 3-9 2-15-2-21z" fill="#c4122e"/>
      </g>
     </g>
    </g>
 </g>
</svg>
